# xmcd
#
# Track frame offsets: 
#        150
#        17145
#        38643
#        58151
#        77141
#        92809
#        110666
#        124323
#        141322
#        159716
#        174892
#
# Disc length: 2512 seconds
#
# Revision: 0
# Processed by: cddbd v1.5.2PL0 Copyright (c) Steve Scherf et al.
# Submitted via: ExactAudioCopy v0.99pb5
#
DISCID=9409ce0b
DTITLE=Esben Just - Comming Home
DYEAR=2005
DGENRE=Blues
TTITLE0=I cant stop loving you
TTITLE1=I've seen the light
TTITLE2=King of the road
TTITLE3=New Orleans
TTITLE4=You are my sunshine
TTITLE5=Down heart blues
TTITLE6=Come into my house
TTITLE7=Isle of Capri
TTITLE8=Like strangers
TTITLE9=Boogie Booker
TTITLE10=What a wonderfull world
EXTD=
EXTT0=
EXTT1=
EXTT2=
EXTT3=
EXTT4=
EXTT5=
EXTT6=
EXTT7=
EXTT8=
EXTT9=
EXTT10=
PLAYORDER=
